<?xml version="1.0" encoding="utf-8" standalone="no"?>
<!DOCTYPE svg PUBLIC "-//W3C//DTD SVG 1.1//EN"
  "http://www.w3.org/Graphics/SVG/1.1/DTD/svg11.dtd">
<svg height="569.99952pt" version="1.1" viewBox="0 0 1072.746692 569.99952" width="1072.746692pt" xmlns="http://www.w3.org/2000/svg" xmlns:xlink="http://www.w3.org/1999/xlink">
 <metadata>
  <rdf:RDF xmlns:cc="http://creativecommons.org/ns#" xmlns:dc="http://purl.org/dc/elements/1.1/" xmlns:rdf="http://www.w3.org/1999/02/22-rdf-syntax-ns#">
   <cc:Work>
    <dc:type rdf:resource="http://purl.org/dc/dcmitype/StillImage"/>
    <dc:date>2021-07-28T14:17:59.175815</dc:date>
    <dc:format>image/svg+xml</dc:format>
    <dc:creator>
     <cc:Agent>
      <dc:title>Matplotlib v3.4.2, https://matplotlib.org/</dc:title>
     </cc:Agent>
    </dc:creator>
   </cc:Work>
  </rdf:RDF>
 </metadata>
 <defs>
  <style type="text/css">*{stroke-linecap:butt;stroke-linejoin:round;}</style>
 </defs>
 <g id="figure_1">
  <g id="patch_1">
   <path d="M 0 569.99952 
L 1072.746692 569.99952 
L 1072.746692 0 
L 0 0 
z
" style="fill:#ffffff;"/>
  </g>
  <g id="axes_1">
   <g id="patch_2">
    <path d="M 81.102223 73.270787 
L 486.613338 73.270787 
L 486.613338 20.895703 
L 81.102223 20.895703 
z
" style="fill:#ffffff;"/>
   </g>
   <g id="matplotlib.axis_1">
    <g id="xtick_1">
     <g id="line2d_1">
      <path clip-path="url(#pe2e148bc68)" d="M 81.102223 73.270787 
L 81.102223 20.895703 
" style="fill:none;stroke:#cccccc;stroke-dasharray:1,1.65;stroke-dashoffset:0;"/>
     </g>
     <g id="text_1">
      <!-- 0.0 -->
      <g style="fill:#262626;" transform="translate(37.368629 122.062193)scale(0.55 -0.55)">
       <defs>
        <path d="M 2034 4250 
Q 1547 4250 1301 3770 
Q 1056 3291 1056 2328 
Q 1056 1369 1301 889 
Q 1547 409 2034 409 
Q 2525 409 2770 889 
Q 3016 1369 3016 2328 
Q 3016 3291 2770 3770 
Q 2525 4250 2034 4250 
z
M 2034 4750 
Q 2819 4750 3233 4129 
Q 3647 3509 3647 2328 
Q 3647 1150 3233 529 
Q 2819 -91 2034 -91 
Q 1250 -91 836 529 
Q 422 1150 422 2328 
Q 422 3509 836 4129 
Q 1250 4750 2034 4750 
z
" id="DejaVuSans-30" transform="scale(0.015625)"/>
        <path d="M 684 794 
L 1344 794 
L 1344 0 
L 684 0 
L 684 794 
z
" id="DejaVuSans-2e" transform="scale(0.015625)"/>
       </defs>
       <use xlink:href="#DejaVuSans-30"/>
       <use x="63.623047" xlink:href="#DejaVuSans-2e"/>
       <use x="95.410156" xlink:href="#DejaVuSans-30"/>
      </g>
     </g>
    </g>
    <g id="xtick_2">
     <g id="line2d_2">
      <path clip-path="url(#pe2e148bc68)" d="M 283.85778 73.270787 
L 283.85778 20.895703 
" style="fill:none;stroke:#cccccc;stroke-dasharray:1,1.65;stroke-dashoffset:0;"/>
     </g>
     <g id="text_2">
      <!-- 0.5 -->
      <g style="fill:#262626;" transform="translate(240.124187 122.062193)scale(0.55 -0.55)">
       <defs>
        <path d="M 691 4666 
L 3169 4666 
L 3169 4134 
L 1269 4134 
L 1269 2991 
Q 1406 3038 1543 3061 
Q 1681 3084 1819 3084 
Q 2600 3084 3056 2656 
Q 3513 2228 3513 1497 
Q 3513 744 3044 326 
Q 2575 -91 1722 -91 
Q 1428 -91 1123 -41 
Q 819 9 494 109 
L 494 744 
Q 775 591 1075 516 
Q 1375 441 1709 441 
Q 2250 441 2565 725 
Q 2881 1009 2881 1497 
Q 2881 1984 2565 2268 
Q 2250 2553 1709 2553 
Q 1456 2553 1204 2497 
Q 953 2441 691 2322 
L 691 4666 
z
" id="DejaVuSans-35" transform="scale(0.015625)"/>
       </defs>
       <use xlink:href="#DejaVuSans-30"/>
       <use x="63.623047" xlink:href="#DejaVuSans-2e"/>
       <use x="95.410156" xlink:href="#DejaVuSans-35"/>
      </g>
     </g>
    </g>
    <g id="xtick_3">
     <g id="line2d_3">
      <path clip-path="url(#pe2e148bc68)" d="M 486.613338 73.270787 
L 486.613338 20.895703 
" style="fill:none;stroke:#cccccc;stroke-dasharray:1,1.65;stroke-dashoffset:0;"/>
     </g>
     <g id="text_3">
      <!-- 1.0 -->
      <g style="fill:#262626;" transform="translate(442.879744 122.062193)scale(0.55 -0.55)">
       <defs>
        <path d="M 794 531 
L 1825 531 
L 1825 4091 
L 703 3866 
L 703 4441 
L 1819 4666 
L 2450 4666 
L 2450 531 
L 3481 531 
L 3481 0 
L 794 0 
L 794 531 
z
" id="DejaVuSans-31" transform="scale(0.015625)"/>
       </defs>
       <use xlink:href="#DejaVuSans-31"/>
       <use x="63.623047" xlink:href="#DejaVuSans-2e"/>
       <use x="95.410156" xlink:href="#DejaVuSans-30"/>
      </g>
     </g>
    </g>
   </g>
   <g id="matplotlib.axis_2">
    <g id="ytick_1">
     <g id="line2d_4">
      <path clip-path="url(#pe2e148bc68)" d="M 81.102223 73.270787 
L 486.613338 73.270787 
" style="fill:none;stroke:#cccccc;stroke-dasharray:1,1.65;stroke-dashoffset:0;"/>
     </g>
     <g id="text_4">
      <!-- 0 -->
      <g style="fill:#262626;" transform="translate(39.108473 94.16649)scale(0.55 -0.55)">
       <use xlink:href="#DejaVuSans-30"/>
      </g>
     </g>
    </g>
    <g id="ytick_2">
     <g id="line2d_5">
      <path clip-path="url(#pe2e148bc68)" d="M 81.102223 20.895703 
L 486.613338 20.895703 
" style="fill:none;stroke:#cccccc;stroke-dasharray:1,1.65;stroke-dashoffset:0;"/>
     </g>
     <g id="text_5">
      <!-- 1 -->
      <g style="fill:#262626;" transform="translate(39.108473 41.791406)scale(0.55 -0.55)">
       <use xlink:href="#DejaVuSans-31"/>
      </g>
     </g>
    </g>
   </g>
   <g id="patch_3">
    <path d="M 81.102223 73.270787 
L 81.102223 20.895703 
" style="fill:none;stroke:#cccccc;stroke-linecap:square;stroke-linejoin:miter;stroke-width:0.6;"/>
   </g>
   <g id="patch_4">
    <path d="M 486.613338 73.270787 
L 486.613338 20.895703 
" style="fill:none;stroke:#cccccc;stroke-linecap:square;stroke-linejoin:miter;stroke-width:0.6;"/>
   </g>
   <g id="patch_5">
    <path d="M 81.102223 73.270787 
L 486.613338 73.270787 
" style="fill:none;stroke:#cccccc;stroke-linecap:square;stroke-linejoin:miter;stroke-width:0.6;"/>
   </g>
   <g id="patch_6">
    <path d="M 81.102223 20.895703 
L 486.613338 20.895703 
" style="fill:none;stroke:#cccccc;stroke-linecap:square;stroke-linejoin:miter;stroke-width:0.6;"/>
   </g>
   <g id="text_6">
    <!-- a -->
    <g style="fill:#262626;" transform="translate(0 22.578186)scale(0.16 -0.16)">
     <defs>
      <path d="M 2106 1575 
Q 1756 1575 1579 1456 
Q 1403 1338 1403 1106 
Q 1403 894 1545 773 
Q 1688 653 1941 653 
Q 2256 653 2472 879 
Q 2688 1106 2688 1447 
L 2688 1575 
L 2106 1575 
z
M 3816 1997 
L 3816 0 
L 2688 0 
L 2688 519 
Q 2463 200 2181 54 
Q 1900 -91 1497 -91 
Q 953 -91 614 226 
Q 275 544 275 1050 
Q 275 1666 698 1953 
Q 1122 2241 2028 2241 
L 2688 2241 
L 2688 2328 
Q 2688 2594 2478 2717 
Q 2269 2841 1825 2841 
Q 1466 2841 1156 2769 
Q 847 2697 581 2553 
L 581 3406 
Q 941 3494 1303 3539 
Q 1666 3584 2028 3584 
Q 2975 3584 3395 3211 
Q 3816 2838 3816 1997 
z
" id="DejaVuSans-Bold-61" transform="scale(0.015625)"/>
     </defs>
     <use xlink:href="#DejaVuSans-Bold-61"/>
    </g>
   </g>
  </g>
  <g id="axes_2">
   <g id="patch_7">
    <path d="M 623.501983 73.270787 
L 1029.013098 73.270787 
L 1029.013098 20.895703 
L 623.501983 20.895703 
z
" style="fill:#ffffff;"/>
   </g>
   <g id="matplotlib.axis_3">
    <g id="xtick_4">
     <g id="line2d_6">
      <path clip-path="url(#pbc1ea47e21)" d="M 623.501983 73.270787 
L 623.501983 20.895703 
" style="fill:none;stroke:#cccccc;stroke-dasharray:1,1.65;stroke-dashoffset:0;"/>
     </g>
     <g id="text_7">
      <!-- 0.0 -->
      <g style="fill:#262626;" transform="translate(579.768389 122.062193)scale(0.55 -0.55)">
       <use xlink:href="#DejaVuSans-30"/>
       <use x="63.623047" xlink:href="#DejaVuSans-2e"/>
       <use x="95.410156" xlink:href="#DejaVuSans-30"/>
      </g>
     </g>
    </g>
    <g id="xtick_5">
     <g id="line2d_7">
      <path clip-path="url(#pbc1ea47e21)" d="M 826.25754 73.270787 
L 826.25754 20.895703 
" style="fill:none;stroke:#cccccc;stroke-dasharray:1,1.65;stroke-dashoffset:0;"/>
     </g>
     <g id="text_8">
      <!-- 0.5 -->
      <g style="fill:#262626;" transform="translate(782.523947 122.062193)scale(0.55 -0.55)">
       <use xlink:href="#DejaVuSans-30"/>
       <use x="63.623047" xlink:href="#DejaVuSans-2e"/>
       <use x="95.410156" xlink:href="#DejaVuSans-35"/>
      </g>
     </g>
    </g>
    <g id="xtick_6">
     <g id="line2d_8">
      <path clip-path="url(#pbc1ea47e21)" d="M 1029.013098 73.270787 
L 1029.013098 20.895703 
" style="fill:none;stroke:#cccccc;stroke-dasharray:1,1.65;stroke-dashoffset:0;"/>
     </g>
     <g id="text_9">
      <!-- 1.0 -->
      <g style="fill:#262626;" transform="translate(985.279504 122.062193)scale(0.55 -0.55)">
       <use xlink:href="#DejaVuSans-31"/>
       <use x="63.623047" xlink:href="#DejaVuSans-2e"/>
       <use x="95.410156" xlink:href="#DejaVuSans-30"/>
      </g>
     </g>
    </g>
   </g>
   <g id="matplotlib.axis_4">
    <g id="ytick_3">
     <g id="line2d_9">
      <path clip-path="url(#pbc1ea47e21)" d="M 623.501983 73.270787 
L 1029.013098 73.270787 
" style="fill:none;stroke:#cccccc;stroke-dasharray:1,1.65;stroke-dashoffset:0;"/>
     </g>
     <g id="text_10">
      <!-- 0 -->
      <g style="fill:#262626;" transform="translate(581.508233 94.16649)scale(0.55 -0.55)">
       <use xlink:href="#DejaVuSans-30"/>
      </g>
     </g>
    </g>
    <g id="ytick_4">
     <g id="line2d_10">
      <path clip-path="url(#pbc1ea47e21)" d="M 623.501983 20.895703 
L 1029.013098 20.895703 
" style="fill:none;stroke:#cccccc;stroke-dasharray:1,1.65;stroke-dashoffset:0;"/>
     </g>
     <g id="text_11">
      <!-- 1 -->
      <g style="fill:#262626;" transform="translate(581.508233 41.791406)scale(0.55 -0.55)">
       <use xlink:href="#DejaVuSans-31"/>
      </g>
     </g>
    </g>
   </g>
   <g id="patch_8">
    <path d="M 623.501983 73.270787 
L 623.501983 20.895703 
" style="fill:none;stroke:#cccccc;stroke-linecap:square;stroke-linejoin:miter;stroke-width:0.6;"/>
   </g>
   <g id="patch_9">
    <path d="M 1029.013098 73.270787 
L 1029.013098 20.895703 
" style="fill:none;stroke:#cccccc;stroke-linecap:square;stroke-linejoin:miter;stroke-width:0.6;"/>
   </g>
   <g id="patch_10">
    <path d="M 623.501983 73.270787 
L 1029.013098 73.270787 
" style="fill:none;stroke:#cccccc;stroke-linecap:square;stroke-linejoin:miter;stroke-width:0.6;"/>
   </g>
   <g id="patch_11">
    <path d="M 623.501983 20.895703 
L 1029.013098 20.895703 
" style="fill:none;stroke:#cccccc;stroke-linecap:square;stroke-linejoin:miter;stroke-width:0.6;"/>
   </g>
   <g id="text_12">
    <!-- b -->
    <g style="fill:#262626;" transform="translate(542.39976 22.578186)scale(0.16 -0.16)">
     <defs>
      <path d="M 2400 722 
Q 2759 722 2948 984 
Q 3138 1247 3138 1747 
Q 3138 2247 2948 2509 
Q 2759 2772 2400 2772 
Q 2041 2772 1848 2508 
Q 1656 2244 1656 1747 
Q 1656 1250 1848 986 
Q 2041 722 2400 722 
z
M 1656 2988 
Q 1888 3294 2169 3439 
Q 2450 3584 2816 3584 
Q 3463 3584 3878 3070 
Q 4294 2556 4294 1747 
Q 4294 938 3878 423 
Q 3463 -91 2816 -91 
Q 2450 -91 2169 54 
Q 1888 200 1656 506 
L 1656 0 
L 538 0 
L 538 4863 
L 1656 4863 
L 1656 2988 
z
" id="DejaVuSans-Bold-62" transform="scale(0.015625)"/>
     </defs>
     <use xlink:href="#DejaVuSans-Bold-62"/>
    </g>
   </g>
  </g>
  <g id="axes_3">
   <g id="patch_12">
    <path d="M 81.102223 212.771742 
L 486.613338 212.771742 
L 486.613338 160.396658 
L 81.102223 160.396658 
z
" style="fill:#ffffff;"/>
   </g>
   <g id="matplotlib.axis_5">
    <g id="xtick_7">
     <g id="line2d_11">
      <path clip-path="url(#p63fbc7c811)" d="M 81.102223 212.771742 
L 81.102223 160.396658 
" style="fill:none;stroke:#cccccc;stroke-dasharray:1,1.65;stroke-dashoffset:0;"/>
     </g>
     <g id="text_13">
      <!-- 0.0 -->
      <g style="fill:#262626;" transform="translate(37.368629 261.563148)scale(0.55 -0.55)">
       <use xlink:href="#DejaVuSans-30"/>
       <use x="63.623047" xlink:href="#DejaVuSans-2e"/>
       <use x="95.410156" xlink:href="#DejaVuSans-30"/>
      </g>
     </g>
    </g>
    <g id="xtick_8">
     <g id="line2d_12">
      <path clip-path="url(#p63fbc7c811)" d="M 283.85778 212.771742 
L 283.85778 160.396658 
" style="fill:none;stroke:#cccccc;stroke-dasharray:1,1.65;stroke-dashoffset:0;"/>
     </g>
     <g id="text_14">
      <!-- 0.5 -->
      <g style="fill:#262626;" transform="translate(240.124187 261.563148)scale(0.55 -0.55)">
       <use xlink:href="#DejaVuSans-30"/>
       <use x="63.623047" xlink:href="#DejaVuSans-2e"/>
       <use x="95.410156" xlink:href="#DejaVuSans-35"/>
      </g>
     </g>
    </g>
    <g id="xtick_9">
     <g id="line2d_13">
      <path clip-path="url(#p63fbc7c811)" d="M 486.613338 212.771742 
L 486.613338 160.396658 
" style="fill:none;stroke:#cccccc;stroke-dasharray:1,1.65;stroke-dashoffset:0;"/>
     </g>
     <g id="text_15">
      <!-- 1.0 -->
      <g style="fill:#262626;" transform="translate(442.879744 261.563148)scale(0.55 -0.55)">
       <use xlink:href="#DejaVuSans-31"/>
       <use x="63.623047" xlink:href="#DejaVuSans-2e"/>
       <use x="95.410156" xlink:href="#DejaVuSans-30"/>
      </g>
     </g>
    </g>
   </g>
   <g id="matplotlib.axis_6">
    <g id="ytick_5">
     <g id="line2d_14">
      <path clip-path="url(#p63fbc7c811)" d="M 81.102223 212.771742 
L 486.613338 212.771742 
" style="fill:none;stroke:#cccccc;stroke-dasharray:1,1.65;stroke-dashoffset:0;"/>
     </g>
     <g id="text_16">
      <!-- 0 -->
      <g style="fill:#262626;" transform="translate(39.108473 233.667445)scale(0.55 -0.55)">
       <use xlink:href="#DejaVuSans-30"/>
      </g>
     </g>
    </g>
    <g id="ytick_6">
     <g id="line2d_15">
      <path clip-path="url(#p63fbc7c811)" d="M 81.102223 160.396658 
L 486.613338 160.396658 
" style="fill:none;stroke:#cccccc;stroke-dasharray:1,1.65;stroke-dashoffset:0;"/>
     </g>
     <g id="text_17">
      <!-- 1 -->
      <g style="fill:#262626;" transform="translate(39.108473 181.292361)scale(0.55 -0.55)">
       <use xlink:href="#DejaVuSans-31"/>
      </g>
     </g>
    </g>
   </g>
   <g id="patch_13">
    <path d="M 81.102223 212.771742 
L 81.102223 160.396658 
" style="fill:none;stroke:#cccccc;stroke-linecap:square;stroke-linejoin:miter;stroke-width:0.6;"/>
   </g>
   <g id="patch_14">
    <path d="M 486.613338 212.771742 
L 486.613338 160.396658 
" style="fill:none;stroke:#cccccc;stroke-linecap:square;stroke-linejoin:miter;stroke-width:0.6;"/>
   </g>
   <g id="patch_15">
    <path d="M 81.102223 212.771742 
L 486.613338 212.771742 
" style="fill:none;stroke:#cccccc;stroke-linecap:square;stroke-linejoin:miter;stroke-width:0.6;"/>
   </g>
   <g id="patch_16">
    <path d="M 81.102223 160.396658 
L 486.613338 160.396658 
" style="fill:none;stroke:#cccccc;stroke-linecap:square;stroke-linejoin:miter;stroke-width:0.6;"/>
   </g>
   <g id="text_18">
    <!-- c -->
    <g style="fill:#262626;" transform="translate(0 162.079141)scale(0.16 -0.16)">
     <defs>
      <path d="M 3366 3391 
L 3366 2478 
Q 3138 2634 2908 2709 
Q 2678 2784 2431 2784 
Q 1963 2784 1702 2511 
Q 1441 2238 1441 1747 
Q 1441 1256 1702 982 
Q 1963 709 2431 709 
Q 2694 709 2930 787 
Q 3166 866 3366 1019 
L 3366 103 
Q 3103 6 2833 -42 
Q 2563 -91 2291 -91 
Q 1344 -91 809 395 
Q 275 881 275 1747 
Q 275 2613 809 3098 
Q 1344 3584 2291 3584 
Q 2566 3584 2833 3536 
Q 3100 3488 3366 3391 
z
" id="DejaVuSans-Bold-63" transform="scale(0.015625)"/>
     </defs>
     <use xlink:href="#DejaVuSans-Bold-63"/>
    </g>
   </g>
  </g>
  <g id="axes_4">
   <g id="patch_17">
    <path d="M 623.501983 212.771742 
L 1029.013098 212.771742 
L 1029.013098 160.396658 
L 623.501983 160.396658 
z
" style="fill:#ffffff;"/>
   </g>
   <g id="matplotlib.axis_7">
    <g id="xtick_10">
     <g id="line2d_16">
      <path clip-path="url(#pce666b5e02)" d="M 623.501983 212.771742 
L 623.501983 160.396658 
" style="fill:none;stroke:#cccccc;stroke-dasharray:1,1.65;stroke-dashoffset:0;"/>
     </g>
     <g id="text_19">
      <!-- 0.0 -->
      <g style="fill:#262626;" transform="translate(579.768389 261.563148)scale(0.55 -0.55)">
       <use xlink:href="#DejaVuSans-30"/>
       <use x="63.623047" xlink:href="#DejaVuSans-2e"/>
       <use x="95.410156" xlink:href="#DejaVuSans-30"/>
      </g>
     </g>
    </g>
    <g id="xtick_11">
     <g id="line2d_17">
      <path clip-path="url(#pce666b5e02)" d="M 826.25754 212.771742 
L 826.25754 160.396658 
" style="fill:none;stroke:#cccccc;stroke-dasharray:1,1.65;stroke-dashoffset:0;"/>
     </g>
     <g id="text_20">
      <!-- 0.5 -->
      <g style="fill:#262626;" transform="translate(782.523947 261.563148)scale(0.55 -0.55)">
       <use xlink:href="#DejaVuSans-30"/>
       <use x="63.623047" xlink:href="#DejaVuSans-2e"/>
       <use x="95.410156" xlink:href="#DejaVuSans-35"/>
      </g>
     </g>
    </g>
    <g id="xtick_12">
     <g id="line2d_18">
      <path clip-path="url(#pce666b5e02)" d="M 1029.013098 212.771742 
L 1029.013098 160.396658 
" style="fill:none;stroke:#cccccc;stroke-dasharray:1,1.65;stroke-dashoffset:0;"/>
     </g>
     <g id="text_21">
      <!-- 1.0 -->
      <g style="fill:#262626;" transform="translate(985.279504 261.563148)scale(0.55 -0.55)">
       <use xlink:href="#DejaVuSans-31"/>
       <use x="63.623047" xlink:href="#DejaVuSans-2e"/>
       <use x="95.410156" xlink:href="#DejaVuSans-30"/>
      </g>
     </g>
    </g>
   </g>
   <g id="matplotlib.axis_8">
    <g id="ytick_7">
     <g id="line2d_19">
      <path clip-path="url(#pce666b5e02)" d="M 623.501983 212.771742 
L 1029.013098 212.771742 
" style="fill:none;stroke:#cccccc;stroke-dasharray:1,1.65;stroke-dashoffset:0;"/>
     </g>
     <g id="text_22">
      <!-- 0 -->
      <g style="fill:#262626;" transform="translate(581.508233 233.667445)scale(0.55 -0.55)">
       <use xlink:href="#DejaVuSans-30"/>
      </g>
     </g>
    </g>
    <g id="ytick_8">
     <g id="line2d_20">
      <path clip-path="url(#pce666b5e02)" d="M 623.501983 160.396658 
L 1029.013098 160.396658 
" style="fill:none;stroke:#cccccc;stroke-dasharray:1,1.65;stroke-dashoffset:0;"/>
     </g>
     <g id="text_23">
      <!-- 1 -->
      <g style="fill:#262626;" transform="translate(581.508233 181.292361)scale(0.55 -0.55)">
       <use xlink:href="#DejaVuSans-31"/>
      </g>
     </g>
    </g>
   </g>
   <g id="patch_18">
    <path d="M 623.501983 212.771742 
L 623.501983 160.396658 
" style="fill:none;stroke:#cccccc;stroke-linecap:square;stroke-linejoin:miter;stroke-width:0.6;"/>
   </g>
   <g id="patch_19">
    <path d="M 1029.013098 212.771742 
L 1029.013098 160.396658 
" style="fill:none;stroke:#cccccc;stroke-linecap:square;stroke-linejoin:miter;stroke-width:0.6;"/>
   </g>
   <g id="patch_20">
    <path d="M 623.501983 212.771742 
L 1029.013098 212.771742 
" style="fill:none;stroke:#cccccc;stroke-linecap:square;stroke-linejoin:miter;stroke-width:0.6;"/>
   </g>
   <g id="patch_21">
    <path d="M 623.501983 160.396658 
L 1029.013098 160.396658 
" style="fill:none;stroke:#cccccc;stroke-linecap:square;stroke-linejoin:miter;stroke-width:0.6;"/>
   </g>
   <g id="text_24">
    <!-- d -->
    <g style="fill:#262626;" transform="translate(542.39976 162.079141)scale(0.16 -0.16)">
     <defs>
      <path d="M 2919 2988 
L 2919 4863 
L 4044 4863 
L 4044 0 
L 2919 0 
L 2919 506 
Q 2688 197 2409 53 
Q 2131 -91 1766 -91 
Q 1119 -91 703 423 
Q 288 938 288 1747 
Q 288 2556 703 3070 
Q 1119 3584 1766 3584 
Q 2128 3584 2408 3439 
Q 2688 3294 2919 2988 
z
M 2181 722 
Q 2541 722 2730 984 
Q 2919 1247 2919 1747 
Q 2919 2247 2730 2509 
Q 2541 2772 2181 2772 
Q 1825 2772 1636 2509 
Q 1447 2247 1447 1747 
Q 1447 1247 1636 984 
Q 1825 722 2181 722 
z
" id="DejaVuSans-Bold-64" transform="scale(0.015625)"/>
     </defs>
     <use xlink:href="#DejaVuSans-Bold-64"/>
    </g>
   </g>
  </g>
  <g id="axes_5">
   <g id="patch_22">
    <path d="M 81.102223 509.769833 
L 486.613338 509.769833 
L 486.613338 457.394748 
L 81.102223 457.394748 
z
" style="fill:#ffffff;"/>
   </g>
   <g id="matplotlib.axis_9">
    <g id="xtick_13">
     <g id="line2d_21">
      <path clip-path="url(#p243d5e31af)" d="M 81.102223 509.769833 
L 81.102223 457.394748 
" style="fill:none;stroke:#cccccc;stroke-dasharray:1,1.65;stroke-dashoffset:0;"/>
     </g>
     <g id="text_25">
      <!-- 0.0 -->
      <g style="fill:#262626;" transform="translate(37.368629 558.561239)scale(0.55 -0.55)">
       <use xlink:href="#DejaVuSans-30"/>
       <use x="63.623047" xlink:href="#DejaVuSans-2e"/>
       <use x="95.410156" xlink:href="#DejaVuSans-30"/>
      </g>
     </g>
    </g>
    <g id="xtick_14">
     <g id="line2d_22">
      <path clip-path="url(#p243d5e31af)" d="M 283.85778 509.769833 
L 283.85778 457.394748 
" style="fill:none;stroke:#cccccc;stroke-dasharray:1,1.65;stroke-dashoffset:0;"/>
     </g>
     <g id="text_26">
      <!-- 0.5 -->
      <g style="fill:#262626;" transform="translate(240.124187 558.561239)scale(0.55 -0.55)">
       <use xlink:href="#DejaVuSans-30"/>
       <use x="63.623047" xlink:href="#DejaVuSans-2e"/>
       <use x="95.410156" xlink:href="#DejaVuSans-35"/>
      </g>
     </g>
    </g>
    <g id="xtick_15">
     <g id="line2d_23">
      <path clip-path="url(#p243d5e31af)" d="M 486.613338 509.769833 
L 486.613338 457.394748 
" style="fill:none;stroke:#cccccc;stroke-dasharray:1,1.65;stroke-dashoffset:0;"/>
     </g>
     <g id="text_27">
      <!-- 1.0 -->
      <g style="fill:#262626;" transform="translate(442.879744 558.561239)scale(0.55 -0.55)">
       <use xlink:href="#DejaVuSans-31"/>
       <use x="63.623047" xlink:href="#DejaVuSans-2e"/>
       <use x="95.410156" xlink:href="#DejaVuSans-30"/>
      </g>
     </g>
    </g>
   </g>
   <g id="matplotlib.axis_10">
    <g id="ytick_9">
     <g id="line2d_24">
      <path clip-path="url(#p243d5e31af)" d="M 81.102223 509.769833 
L 486.613338 509.769833 
" style="fill:none;stroke:#cccccc;stroke-dasharray:1,1.65;stroke-dashoffset:0;"/>
     </g>
     <g id="text_28">
      <!-- 0 -->
      <g style="fill:#262626;" transform="translate(39.108473 530.665536)scale(0.55 -0.55)">
       <use xlink:href="#DejaVuSans-30"/>
      </g>
     </g>
    </g>
    <g id="ytick_10">
     <g id="line2d_25">
      <path clip-path="url(#p243d5e31af)" d="M 81.102223 457.394748 
L 486.613338 457.394748 
" style="fill:none;stroke:#cccccc;stroke-dasharray:1,1.65;stroke-dashoffset:0;"/>
     </g>
     <g id="text_29">
      <!-- 1 -->
      <g style="fill:#262626;" transform="translate(39.108473 478.290452)scale(0.55 -0.55)">
       <use xlink:href="#DejaVuSans-31"/>
      </g>
     </g>
    </g>
   </g>
   <g id="patch_23">
    <path d="M 81.102223 509.769833 
L 81.102223 457.394748 
" style="fill:none;stroke:#cccccc;stroke-linecap:square;stroke-linejoin:miter;stroke-width:0.6;"/>
   </g>
   <g id="patch_24">
    <path d="M 486.613338 509.769833 
L 486.613338 457.394748 
" style="fill:none;stroke:#cccccc;stroke-linecap:square;stroke-linejoin:miter;stroke-width:0.6;"/>
   </g>
   <g id="patch_25">
    <path d="M 81.102223 509.769833 
L 486.613338 509.769833 
" style="fill:none;stroke:#cccccc;stroke-linecap:square;stroke-linejoin:miter;stroke-width:0.6;"/>
   </g>
   <g id="patch_26">
    <path d="M 81.102223 457.394748 
L 486.613338 457.394748 
" style="fill:none;stroke:#cccccc;stroke-linecap:square;stroke-linejoin:miter;stroke-width:0.6;"/>
   </g>
   <g id="text_30">
    <!-- e -->
    <g style="fill:#262626;" transform="translate(0 459.077232)scale(0.16 -0.16)">
     <defs>
      <path d="M 4031 1759 
L 4031 1441 
L 1416 1441 
Q 1456 1047 1700 850 
Q 1944 653 2381 653 
Q 2734 653 3104 758 
Q 3475 863 3866 1075 
L 3866 213 
Q 3469 63 3072 -14 
Q 2675 -91 2278 -91 
Q 1328 -91 801 392 
Q 275 875 275 1747 
Q 275 2603 792 3093 
Q 1309 3584 2216 3584 
Q 3041 3584 3536 3087 
Q 4031 2591 4031 1759 
z
M 2881 2131 
Q 2881 2450 2695 2645 
Q 2509 2841 2209 2841 
Q 1884 2841 1681 2658 
Q 1478 2475 1428 2131 
L 2881 2131 
z
" id="DejaVuSans-Bold-65" transform="scale(0.015625)"/>
     </defs>
     <use xlink:href="#DejaVuSans-Bold-65"/>
    </g>
   </g>
  </g>
  <g id="axes_6">
   <g id="patch_27">
    <path d="M 623.501983 509.769833 
L 1029.013098 509.769833 
L 1029.013098 457.394748 
L 623.501983 457.394748 
z
" style="fill:#ffffff;"/>
   </g>
   <g id="matplotlib.axis_11">
    <g id="xtick_16">
     <g id="line2d_26">
      <path clip-path="url(#p401f4850bf)" d="M 641.178883 509.769833 
L 641.178883 457.394748 
" style="fill:none;stroke:#cccccc;stroke-dasharray:1,1.65;stroke-dashoffset:0;"/>
     </g>
     <g id="text_31">
      <!-- 0 -->
      <g style="fill:#262626;" transform="translate(623.682008 558.561239)scale(0.55 -0.55)">
       <use xlink:href="#DejaVuSans-30"/>
      </g>
     </g>
    </g>
    <g id="xtick_17">
     <g id="line2d_27">
      <path clip-path="url(#p401f4850bf)" d="M 1011.336197 509.769833 
L 1011.336197 457.394748 
" style="fill:none;stroke:#cccccc;stroke-dasharray:1,1.65;stroke-dashoffset:0;"/>
     </g>
     <g id="text_32">
      <!-- 5 -->
      <g style="fill:#262626;" transform="translate(993.839322 558.561239)scale(0.55 -0.55)">
       <use xlink:href="#DejaVuSans-35"/>
      </g>
     </g>
    </g>
   </g>
   <g id="matplotlib.axis_12">
    <g id="ytick_11">
     <g id="line2d_28">
      <path clip-path="url(#p401f4850bf)" d="M 623.501983 509.769833 
L 1029.013098 509.769833 
" style="fill:none;stroke:#cccccc;stroke-dasharray:1,1.65;stroke-dashoffset:0;"/>
     </g>
     <g id="text_33">
      <!-- 0 -->
      <g style="fill:#262626;" transform="translate(581.508233 530.665536)scale(0.55 -0.55)">
       <use xlink:href="#DejaVuSans-30"/>
      </g>
     </g>
    </g>
    <g id="ytick_12">
     <g id="line2d_29">
      <path clip-path="url(#p401f4850bf)" d="M 623.501983 459.8888 
L 1029.013098 459.8888 
" style="fill:none;stroke:#cccccc;stroke-dasharray:1,1.65;stroke-dashoffset:0;"/>
     </g>
     <g id="text_34">
      <!-- 1 -->
      <g style="fill:#262626;" transform="translate(581.508233 480.784503)scale(0.55 -0.55)">
       <use xlink:href="#DejaVuSans-31"/>
      </g>
     </g>
    </g>
   </g>
   <g id="patch_28">
    <path clip-path="url(#p401f4850bf)" d="M 641.934306 509.769833 
L 643.948768 509.769833 
L 643.948768 509.769833 
L 641.934306 509.769833 
z
" style="fill:#0173b2;opacity:0.7;stroke:#ffffff;stroke-linejoin:miter;"/>
   </g>
   <g id="patch_29">
    <path clip-path="url(#p401f4850bf)" d="M 649.488537 509.769833 
L 651.502999 509.769833 
L 651.502999 509.769833 
L 649.488537 509.769833 
z
" style="fill:#0173b2;opacity:0.7;stroke:#ffffff;stroke-linejoin:miter;"/>
   </g>
   <g id="patch_30">
    <path clip-path="url(#p401f4850bf)" d="M 657.042768 509.769833 
L 659.05723 509.769833 
L 659.05723 509.769833 
L 657.042768 509.769833 
z
" style="fill:#0173b2;opacity:0.7;stroke:#ffffff;stroke-linejoin:miter;"/>
   </g>
   <g id="patch_31">
    <path clip-path="url(#p401f4850bf)" d="M 664.596999 509.769833 
L 666.611461 509.769833 
L 666.611461 509.769833 
L 664.596999 509.769833 
z
" style="fill:#0173b2;opacity:0.7;stroke:#ffffff;stroke-linejoin:miter;"/>
   </g>
   <g id="patch_32">
    <path clip-path="url(#p401f4850bf)" d="M 672.15123 509.769833 
L 674.165692 509.769833 
L 674.165692 509.769833 
L 672.15123 509.769833 
z
" style="fill:#0173b2;opacity:0.7;stroke:#ffffff;stroke-linejoin:miter;"/>
   </g>
   <g id="patch_33">
    <path clip-path="url(#p401f4850bf)" d="M 679.705461 509.769833 
L 681.719922 509.769833 
L 681.719922 509.769833 
L 679.705461 509.769833 
z
" style="fill:#0173b2;opacity:0.7;stroke:#ffffff;stroke-linejoin:miter;"/>
   </g>
   <g id="patch_34">
    <path clip-path="url(#p401f4850bf)" d="M 687.259692 509.769833 
L 689.274153 509.769833 
L 689.274153 509.769833 
L 687.259692 509.769833 
z
" style="fill:#0173b2;opacity:0.7;stroke:#ffffff;stroke-linejoin:miter;"/>
   </g>
   <g id="patch_35">
    <path clip-path="url(#p401f4850bf)" d="M 694.813923 509.769833 
L 696.828384 509.769833 
L 696.828384 509.769833 
L 694.813923 509.769833 
z
" style="fill:#0173b2;opacity:0.7;stroke:#ffffff;stroke-linejoin:miter;"/>
   </g>
   <g id="patch_36">
    <path clip-path="url(#p401f4850bf)" d="M 702.368154 509.769833 
L 704.382615 509.769833 
L 704.382615 509.769833 
L 702.368154 509.769833 
z
" style="fill:#0173b2;opacity:0.7;stroke:#ffffff;stroke-linejoin:miter;"/>
   </g>
   <g id="patch_37">
    <path clip-path="url(#p401f4850bf)" d="M 709.922384 509.769833 
L 711.936846 509.769833 
L 711.936846 509.769833 
L 709.922384 509.769833 
z
" style="fill:#0173b2;opacity:0.7;stroke:#ffffff;stroke-linejoin:miter;"/>
   </g>
   <g id="patch_38">
    <path clip-path="url(#p401f4850bf)" d="M 717.476615 509.769833 
L 719.491077 509.769833 
L 719.491077 509.769833 
L 717.476615 509.769833 
z
" style="fill:#0173b2;opacity:0.7;stroke:#ffffff;stroke-linejoin:miter;"/>
   </g>
   <g id="patch_39">
    <path clip-path="url(#p401f4850bf)" d="M 725.030846 509.769833 
L 727.045308 509.769833 
L 727.045308 509.769833 
L 725.030846 509.769833 
z
" style="fill:#0173b2;opacity:0.7;stroke:#ffffff;stroke-linejoin:miter;"/>
   </g>
   <g id="patch_40">
    <path clip-path="url(#p401f4850bf)" d="M 732.585077 509.769833 
L 734.599539 509.769833 
L 734.599539 509.769833 
L 732.585077 509.769833 
z
" style="fill:#0173b2;opacity:0.7;stroke:#ffffff;stroke-linejoin:miter;"/>
   </g>
   <g id="patch_41">
    <path clip-path="url(#p401f4850bf)" d="M 740.139308 509.769833 
L 742.15377 509.769833 
L 742.15377 509.769833 
L 740.139308 509.769833 
z
" style="fill:#0173b2;opacity:0.7;stroke:#ffffff;stroke-linejoin:miter;"/>
   </g>
   <g id="patch_42">
    <path clip-path="url(#p401f4850bf)" d="M 747.693539 509.769833 
L 749.708001 509.769833 
L 749.708001 509.769833 
L 747.693539 509.769833 
z
" style="fill:#0173b2;opacity:0.7;stroke:#ffffff;stroke-linejoin:miter;"/>
   </g>
   <g id="patch_43">
    <path clip-path="url(#p401f4850bf)" d="M 755.24777 509.769833 
L 757.262231 509.769833 
L 757.262231 509.769833 
L 755.24777 509.769833 
z
" style="fill:#0173b2;opacity:0.7;stroke:#ffffff;stroke-linejoin:miter;"/>
   </g>
   <g id="patch_44">
    <path clip-path="url(#p401f4850bf)" d="M 762.802001 509.769833 
L 764.816462 509.769833 
L 764.816462 509.769833 
L 762.802001 509.769833 
z
" style="fill:#0173b2;opacity:0.7;stroke:#ffffff;stroke-linejoin:miter;"/>
   </g>
   <g id="patch_45">
    <path clip-path="url(#p401f4850bf)" d="M 770.356232 509.769833 
L 772.370693 509.769833 
L 772.370693 509.769833 
L 770.356232 509.769833 
z
" style="fill:#0173b2;opacity:0.7;stroke:#ffffff;stroke-linejoin:miter;"/>
   </g>
   <g id="patch_46">
    <path clip-path="url(#p401f4850bf)" d="M 777.910463 509.769833 
L 779.924924 509.769833 
L 779.924924 509.769833 
L 777.910463 509.769833 
z
" style="fill:#0173b2;opacity:0.7;stroke:#ffffff;stroke-linejoin:miter;"/>
   </g>
   <g id="patch_47">
    <path clip-path="url(#p401f4850bf)" d="M 785.464694 509.769833 
L 787.479155 509.769833 
L 787.479155 459.8888 
L 785.464694 459.8888 
z
" style="fill:#0173b2;opacity:0.7;stroke:#ffffff;stroke-linejoin:miter;"/>
   </g>
   <g id="patch_48">
    <path clip-path="url(#p401f4850bf)" d="M 793.018924 509.769833 
L 795.033386 509.769833 
L 795.033386 509.769833 
L 793.018924 509.769833 
z
" style="fill:#0173b2;opacity:0.7;stroke:#ffffff;stroke-linejoin:miter;"/>
   </g>
   <g id="patch_49">
    <path clip-path="url(#p401f4850bf)" d="M 800.573155 509.769833 
L 802.587617 509.769833 
L 802.587617 509.769833 
L 800.573155 509.769833 
z
" style="fill:#0173b2;opacity:0.7;stroke:#ffffff;stroke-linejoin:miter;"/>
   </g>
   <g id="patch_50">
    <path clip-path="url(#p401f4850bf)" d="M 808.127386 509.769833 
L 810.141848 509.769833 
L 810.141848 509.769833 
L 808.127386 509.769833 
z
" style="fill:#0173b2;opacity:0.7;stroke:#ffffff;stroke-linejoin:miter;"/>
   </g>
   <g id="patch_51">
    <path clip-path="url(#p401f4850bf)" d="M 815.681617 509.769833 
L 817.696079 509.769833 
L 817.696079 509.769833 
L 815.681617 509.769833 
z
" style="fill:#0173b2;opacity:0.7;stroke:#ffffff;stroke-linejoin:miter;"/>
   </g>
   <g id="patch_52">
    <path clip-path="url(#p401f4850bf)" d="M 823.235848 509.769833 
L 825.25031 509.769833 
L 825.25031 509.769833 
L 823.235848 509.769833 
z
" style="fill:#0173b2;opacity:0.7;stroke:#ffffff;stroke-linejoin:miter;"/>
   </g>
   <g id="patch_53">
    <path clip-path="url(#p401f4850bf)" d="M 830.790079 509.769833 
L 832.80454 509.769833 
L 832.80454 509.769833 
L 830.790079 509.769833 
z
" style="fill:#0173b2;opacity:0.7;stroke:#ffffff;stroke-linejoin:miter;"/>
   </g>
   <g id="patch_54">
    <path clip-path="url(#p401f4850bf)" d="M 838.34431 509.769833 
L 840.358771 509.769833 
L 840.358771 509.769833 
L 838.34431 509.769833 
z
" style="fill:#0173b2;opacity:0.7;stroke:#ffffff;stroke-linejoin:miter;"/>
   </g>
   <g id="patch_55">
    <path clip-path="url(#p401f4850bf)" d="M 845.898541 509.769833 
L 847.913002 509.769833 
L 847.913002 509.769833 
L 845.898541 509.769833 
z
" style="fill:#0173b2;opacity:0.7;stroke:#ffffff;stroke-linejoin:miter;"/>
   </g>
   <g id="patch_56">
    <path clip-path="url(#p401f4850bf)" d="M 853.452772 509.769833 
L 855.467233 509.769833 
L 855.467233 509.769833 
L 853.452772 509.769833 
z
" style="fill:#0173b2;opacity:0.7;stroke:#ffffff;stroke-linejoin:miter;"/>
   </g>
   <g id="patch_57">
    <path clip-path="url(#p401f4850bf)" d="M 861.007003 509.769833 
L 863.021464 509.769833 
L 863.021464 509.769833 
L 861.007003 509.769833 
z
" style="fill:#0173b2;opacity:0.7;stroke:#ffffff;stroke-linejoin:miter;"/>
   </g>
   <g id="patch_58">
    <path clip-path="url(#p401f4850bf)" d="M 868.561233 509.769833 
L 870.575695 509.769833 
L 870.575695 509.769833 
L 868.561233 509.769833 
z
" style="fill:#0173b2;opacity:0.7;stroke:#ffffff;stroke-linejoin:miter;"/>
   </g>
   <g id="patch_59">
    <path clip-path="url(#p401f4850bf)" d="M 876.115464 509.769833 
L 878.129926 509.769833 
L 878.129926 509.769833 
L 876.115464 509.769833 
z
" style="fill:#0173b2;opacity:0.7;stroke:#ffffff;stroke-linejoin:miter;"/>
   </g>
   <g id="patch_60">
    <path clip-path="url(#p401f4850bf)" d="M 883.669695 509.769833 
L 885.684157 509.769833 
L 885.684157 509.769833 
L 883.669695 509.769833 
z
" style="fill:#0173b2;opacity:0.7;stroke:#ffffff;stroke-linejoin:miter;"/>
   </g>
   <g id="patch_61">
    <path clip-path="url(#p401f4850bf)" d="M 891.223926 509.769833 
L 893.238388 509.769833 
L 893.238388 509.769833 
L 891.223926 509.769833 
z
" style="fill:#0173b2;opacity:0.7;stroke:#ffffff;stroke-linejoin:miter;"/>
   </g>
   <g id="patch_62">
    <path clip-path="url(#p401f4850bf)" d="M 898.778157 509.769833 
L 900.792619 509.769833 
L 900.792619 509.769833 
L 898.778157 509.769833 
z
" style="fill:#0173b2;opacity:0.7;stroke:#ffffff;stroke-linejoin:miter;"/>
   </g>
   <g id="patch_63">
    <path clip-path="url(#p401f4850bf)" d="M 906.332388 509.769833 
L 908.34685 509.769833 
L 908.34685 509.769833 
L 906.332388 509.769833 
z
" style="fill:#0173b2;opacity:0.7;stroke:#ffffff;stroke-linejoin:miter;"/>
   </g>
   <g id="patch_64">
    <path clip-path="url(#p401f4850bf)" d="M 913.886619 509.769833 
L 915.90108 509.769833 
L 915.90108 509.769833 
L 913.886619 509.769833 
z
" style="fill:#0173b2;opacity:0.7;stroke:#ffffff;stroke-linejoin:miter;"/>
   </g>
   <g id="patch_65">
    <path clip-path="url(#p401f4850bf)" d="M 921.44085 509.769833 
L 923.455311 509.769833 
L 923.455311 509.769833 
L 921.44085 509.769833 
z
" style="fill:#0173b2;opacity:0.7;stroke:#ffffff;stroke-linejoin:miter;"/>
   </g>
   <g id="patch_66">
    <path clip-path="url(#p401f4850bf)" d="M 928.995081 509.769833 
L 931.009542 509.769833 
L 931.009542 509.769833 
L 928.995081 509.769833 
z
" style="fill:#0173b2;opacity:0.7;stroke:#ffffff;stroke-linejoin:miter;"/>
   </g>
   <g id="patch_67">
    <path clip-path="url(#p401f4850bf)" d="M 936.549312 509.769833 
L 938.563773 509.769833 
L 938.563773 509.769833 
L 936.549312 509.769833 
z
" style="fill:#0173b2;opacity:0.7;stroke:#ffffff;stroke-linejoin:miter;"/>
   </g>
   <g id="patch_68">
    <path clip-path="url(#p401f4850bf)" d="M 944.103542 509.769833 
L 946.118004 509.769833 
L 946.118004 509.769833 
L 944.103542 509.769833 
z
" style="fill:#0173b2;opacity:0.7;stroke:#ffffff;stroke-linejoin:miter;"/>
   </g>
   <g id="patch_69">
    <path clip-path="url(#p401f4850bf)" d="M 951.657773 509.769833 
L 953.672235 509.769833 
L 953.672235 509.769833 
L 951.657773 509.769833 
z
" style="fill:#0173b2;opacity:0.7;stroke:#ffffff;stroke-linejoin:miter;"/>
   </g>
   <g id="patch_70">
    <path clip-path="url(#p401f4850bf)" d="M 959.212004 509.769833 
L 961.226466 509.769833 
L 961.226466 509.769833 
L 959.212004 509.769833 
z
" style="fill:#0173b2;opacity:0.7;stroke:#ffffff;stroke-linejoin:miter;"/>
   </g>
   <g id="patch_71">
    <path clip-path="url(#p401f4850bf)" d="M 966.766235 509.769833 
L 968.780697 509.769833 
L 968.780697 509.769833 
L 966.766235 509.769833 
z
" style="fill:#0173b2;opacity:0.7;stroke:#ffffff;stroke-linejoin:miter;"/>
   </g>
   <g id="patch_72">
    <path clip-path="url(#p401f4850bf)" d="M 974.320466 509.769833 
L 976.334928 509.769833 
L 976.334928 509.769833 
L 974.320466 509.769833 
z
" style="fill:#0173b2;opacity:0.7;stroke:#ffffff;stroke-linejoin:miter;"/>
   </g>
   <g id="patch_73">
    <path clip-path="url(#p401f4850bf)" d="M 981.874697 509.769833 
L 983.889159 509.769833 
L 983.889159 509.769833 
L 981.874697 509.769833 
z
" style="fill:#0173b2;opacity:0.7;stroke:#ffffff;stroke-linejoin:miter;"/>
   </g>
   <g id="patch_74">
    <path clip-path="url(#p401f4850bf)" d="M 989.428928 509.769833 
L 991.443389 509.769833 
L 991.443389 509.769833 
L 989.428928 509.769833 
z
" style="fill:#0173b2;opacity:0.7;stroke:#ffffff;stroke-linejoin:miter;"/>
   </g>
   <g id="patch_75">
    <path clip-path="url(#p401f4850bf)" d="M 996.983159 509.769833 
L 998.99762 509.769833 
L 998.99762 509.769833 
L 996.983159 509.769833 
z
" style="fill:#0173b2;opacity:0.7;stroke:#ffffff;stroke-linejoin:miter;"/>
   </g>
   <g id="patch_76">
    <path clip-path="url(#p401f4850bf)" d="M 1004.53739 509.769833 
L 1006.551851 509.769833 
L 1006.551851 509.769833 
L 1004.53739 509.769833 
z
" style="fill:#0173b2;opacity:0.7;stroke:#ffffff;stroke-linejoin:miter;"/>
   </g>
   <g id="patch_77">
    <path clip-path="url(#p401f4850bf)" d="M 643.948768 509.769833 
L 645.96323 509.769833 
L 645.96323 509.769833 
L 643.948768 509.769833 
z
" style="fill:#de8f05;opacity:0.7;stroke:#ffffff;stroke-linejoin:miter;"/>
   </g>
   <g id="patch_78">
    <path clip-path="url(#p401f4850bf)" d="M 651.502999 509.769833 
L 653.51746 509.769833 
L 653.51746 509.769833 
L 651.502999 509.769833 
z
" style="fill:#de8f05;opacity:0.7;stroke:#ffffff;stroke-linejoin:miter;"/>
   </g>
   <g id="patch_79">
    <path clip-path="url(#p401f4850bf)" d="M 659.05723 509.769833 
L 661.071691 509.769833 
L 661.071691 509.769833 
L 659.05723 509.769833 
z
" style="fill:#de8f05;opacity:0.7;stroke:#ffffff;stroke-linejoin:miter;"/>
   </g>
   <g id="patch_80">
    <path clip-path="url(#p401f4850bf)" d="M 666.611461 509.769833 
L 668.625922 509.769833 
L 668.625922 509.769833 
L 666.611461 509.769833 
z
" style="fill:#de8f05;opacity:0.7;stroke:#ffffff;stroke-linejoin:miter;"/>
   </g>
   <g id="patch_81">
    <path clip-path="url(#p401f4850bf)" d="M 674.165692 509.769833 
L 676.180153 509.769833 
L 676.180153 509.769833 
L 674.165692 509.769833 
z
" style="fill:#de8f05;opacity:0.7;stroke:#ffffff;stroke-linejoin:miter;"/>
   </g>
   <g id="patch_82">
    <path clip-path="url(#p401f4850bf)" d="M 681.719922 509.769833 
L 683.734384 509.769833 
L 683.734384 509.769833 
L 681.719922 509.769833 
z
" style="fill:#de8f05;opacity:0.7;stroke:#ffffff;stroke-linejoin:miter;"/>
   </g>
   <g id="patch_83">
    <path clip-path="url(#p401f4850bf)" d="M 689.274153 509.769833 
L 691.288615 509.769833 
L 691.288615 509.769833 
L 689.274153 509.769833 
z
" style="fill:#de8f05;opacity:0.7;stroke:#ffffff;stroke-linejoin:miter;"/>
   </g>
   <g id="patch_84">
    <path clip-path="url(#p401f4850bf)" d="M 696.828384 509.769833 
L 698.842846 509.769833 
L 698.842846 509.769833 
L 696.828384 509.769833 
z
" style="fill:#de8f05;opacity:0.7;stroke:#ffffff;stroke-linejoin:miter;"/>
   </g>
   <g id="patch_85">
    <path clip-path="url(#p401f4850bf)" d="M 704.382615 509.769833 
L 706.397077 509.769833 
L 706.397077 509.769833 
L 704.382615 509.769833 
z
" style="fill:#de8f05;opacity:0.7;stroke:#ffffff;stroke-linejoin:miter;"/>
   </g>
   <g id="patch_86">
    <path clip-path="url(#p401f4850bf)" d="M 711.936846 509.769833 
L 713.951308 509.769833 
L 713.951308 509.769833 
L 711.936846 509.769833 
z
" style="fill:#de8f05;opacity:0.7;stroke:#ffffff;stroke-linejoin:miter;"/>
   </g>
   <g id="patch_87">
    <path clip-path="url(#p401f4850bf)" d="M 719.491077 509.769833 
L 721.505539 509.769833 
L 721.505539 509.769833 
L 719.491077 509.769833 
z
" style="fill:#de8f05;opacity:0.7;stroke:#ffffff;stroke-linejoin:miter;"/>
   </g>
   <g id="patch_88">
    <path clip-path="url(#p401f4850bf)" d="M 727.045308 509.769833 
L 729.059769 509.769833 
L 729.059769 509.769833 
L 727.045308 509.769833 
z
" style="fill:#de8f05;opacity:0.7;stroke:#ffffff;stroke-linejoin:miter;"/>
   </g>
   <g id="patch_89">
    <path clip-path="url(#p401f4850bf)" d="M 734.599539 509.769833 
L 736.614 509.769833 
L 736.614 509.769833 
L 734.599539 509.769833 
z
" style="fill:#de8f05;opacity:0.7;stroke:#ffffff;stroke-linejoin:miter;"/>
   </g>
   <g id="patch_90">
    <path clip-path="url(#p401f4850bf)" d="M 742.15377 509.769833 
L 744.168231 509.769833 
L 744.168231 509.769833 
L 742.15377 509.769833 
z
" style="fill:#de8f05;opacity:0.7;stroke:#ffffff;stroke-linejoin:miter;"/>
   </g>
   <g id="patch_91">
    <path clip-path="url(#p401f4850bf)" d="M 749.708001 509.769833 
L 751.722462 509.769833 
L 751.722462 509.769833 
L 749.708001 509.769833 
z
" style="fill:#de8f05;opacity:0.7;stroke:#ffffff;stroke-linejoin:miter;"/>
   </g>
   <g id="patch_92">
    <path clip-path="url(#p401f4850bf)" d="M 757.262231 509.769833 
L 759.276693 509.769833 
L 759.276693 509.769833 
L 757.262231 509.769833 
z
" style="fill:#de8f05;opacity:0.7;stroke:#ffffff;stroke-linejoin:miter;"/>
   </g>
   <g id="patch_93">
    <path clip-path="url(#p401f4850bf)" d="M 764.816462 509.769833 
L 766.830924 509.769833 
L 766.830924 509.769833 
L 764.816462 509.769833 
z
" style="fill:#de8f05;opacity:0.7;stroke:#ffffff;stroke-linejoin:miter;"/>
   </g>
   <g id="patch_94">
    <path clip-path="url(#p401f4850bf)" d="M 772.370693 509.769833 
L 774.385155 509.769833 
L 774.385155 509.769833 
L 772.370693 509.769833 
z
" style="fill:#de8f05;opacity:0.7;stroke:#ffffff;stroke-linejoin:miter;"/>
   </g>
   <g id="patch_95">
    <path clip-path="url(#p401f4850bf)" d="M 779.924924 509.769833 
L 781.939386 509.769833 
L 781.939386 509.769833 
L 779.924924 509.769833 
z
" style="fill:#de8f05;opacity:0.7;stroke:#ffffff;stroke-linejoin:miter;"/>
   </g>
   <g id="patch_96">
    <path clip-path="url(#p401f4850bf)" d="M 787.479155 509.769833 
L 789.493617 509.769833 
L 789.493617 459.8888 
L 787.479155 459.8888 
z
" style="fill:#de8f05;opacity:0.7;stroke:#ffffff;stroke-linejoin:miter;"/>
   </g>
   <g id="patch_97">
    <path clip-path="url(#p401f4850bf)" d="M 795.033386 509.769833 
L 797.047848 509.769833 
L 797.047848 509.769833 
L 795.033386 509.769833 
z
" style="fill:#de8f05;opacity:0.7;stroke:#ffffff;stroke-linejoin:miter;"/>
   </g>
   <g id="patch_98">
    <path clip-path="url(#p401f4850bf)" d="M 802.587617 509.769833 
L 804.602078 509.769833 
L 804.602078 509.769833 
L 802.587617 509.769833 
z
" style="fill:#de8f05;opacity:0.7;stroke:#ffffff;stroke-linejoin:miter;"/>
   </g>
   <g id="patch_99">
    <path clip-path="url(#p401f4850bf)" d="M 810.141848 509.769833 
L 812.156309 509.769833 
L 812.156309 509.769833 
L 810.141848 509.769833 
z
" style="fill:#de8f05;opacity:0.7;stroke:#ffffff;stroke-linejoin:miter;"/>
   </g>
   <g id="patch_100">
    <path clip-path="url(#p401f4850bf)" d="M 817.696079 509.769833 
L 819.71054 509.769833 
L 819.71054 509.769833 
L 817.696079 509.769833 
z
" style="fill:#de8f05;opacity:0.7;stroke:#ffffff;stroke-linejoin:miter;"/>
   </g>
   <g id="patch_101">
    <path clip-path="url(#p401f4850bf)" d="M 825.25031 509.769833 
L 827.264771 509.769833 
L 827.264771 509.769833 
L 825.25031 509.769833 
z
" style="fill:#de8f05;opacity:0.7;stroke:#ffffff;stroke-linejoin:miter;"/>
   </g>
   <g id="patch_102">
    <path clip-path="url(#p401f4850bf)" d="M 832.80454 509.769833 
L 834.819002 509.769833 
L 834.819002 509.769833 
L 832.80454 509.769833 
z
" style="fill:#de8f05;opacity:0.7;stroke:#ffffff;stroke-linejoin:miter;"/>
   </g>
   <g id="patch_103">
    <path clip-path="url(#p401f4850bf)" d="M 840.358771 509.769833 
L 842.373233 509.769833 
L 842.373233 509.769833 
L 840.358771 509.769833 
z
" style="fill:#de8f05;opacity:0.7;stroke:#ffffff;stroke-linejoin:miter;"/>
   </g>
   <g id="patch_104">
    <path clip-path="url(#p401f4850bf)" d="M 847.913002 509.769833 
L 849.927464 509.769833 
L 849.927464 509.769833 
L 847.913002 509.769833 
z
" style="fill:#de8f05;opacity:0.7;stroke:#ffffff;stroke-linejoin:miter;"/>
   </g>
   <g id="patch_105">
    <path clip-path="url(#p401f4850bf)" d="M 855.467233 509.769833 
L 857.481695 509.769833 
L 857.481695 509.769833 
L 855.467233 509.769833 
z
" style="fill:#de8f05;opacity:0.7;stroke:#ffffff;stroke-linejoin:miter;"/>
   </g>
   <g id="patch_106">
    <path clip-path="url(#p401f4850bf)" d="M 863.021464 509.769833 
L 865.035926 509.769833 
L 865.035926 509.769833 
L 863.021464 509.769833 
z
" style="fill:#de8f05;opacity:0.7;stroke:#ffffff;stroke-linejoin:miter;"/>
   </g>
   <g id="patch_107">
    <path clip-path="url(#p401f4850bf)" d="M 870.575695 509.769833 
L 872.590157 509.769833 
L 872.590157 509.769833 
L 870.575695 509.769833 
z
" style="fill:#de8f05;opacity:0.7;stroke:#ffffff;stroke-linejoin:miter;"/>
   </g>
   <g id="patch_108">
    <path clip-path="url(#p401f4850bf)" d="M 878.129926 509.769833 
L 880.144387 509.769833 
L 880.144387 509.769833 
L 878.129926 509.769833 
z
" style="fill:#de8f05;opacity:0.7;stroke:#ffffff;stroke-linejoin:miter;"/>
   </g>
   <g id="patch_109">
    <path clip-path="url(#p401f4850bf)" d="M 885.684157 509.769833 
L 887.698618 509.769833 
L 887.698618 509.769833 
L 885.684157 509.769833 
z
" style="fill:#de8f05;opacity:0.7;stroke:#ffffff;stroke-linejoin:miter;"/>
   </g>
   <g id="patch_110">
    <path clip-path="url(#p401f4850bf)" d="M 893.238388 509.769833 
L 895.252849 509.769833 
L 895.252849 509.769833 
L 893.238388 509.769833 
z
" style="fill:#de8f05;opacity:0.7;stroke:#ffffff;stroke-linejoin:miter;"/>
   </g>
   <g id="patch_111">
    <path clip-path="url(#p401f4850bf)" d="M 900.792619 509.769833 
L 902.80708 509.769833 
L 902.80708 509.769833 
L 900.792619 509.769833 
z
" style="fill:#de8f05;opacity:0.7;stroke:#ffffff;stroke-linejoin:miter;"/>
   </g>
   <g id="patch_112">
    <path clip-path="url(#p401f4850bf)" d="M 908.34685 509.769833 
L 910.361311 509.769833 
L 910.361311 509.769833 
L 908.34685 509.769833 
z
" style="fill:#de8f05;opacity:0.7;stroke:#ffffff;stroke-linejoin:miter;"/>
   </g>
   <g id="patch_113">
    <path clip-path="url(#p401f4850bf)" d="M 915.90108 509.769833 
L 917.915542 509.769833 
L 917.915542 509.769833 
L 915.90108 509.769833 
z
" style="fill:#de8f05;opacity:0.7;stroke:#ffffff;stroke-linejoin:miter;"/>
   </g>
   <g id="patch_114">
    <path clip-path="url(#p401f4850bf)" d="M 923.455311 509.769833 
L 925.469773 509.769833 
L 925.469773 509.769833 
L 923.455311 509.769833 
z
" style="fill:#de8f05;opacity:0.7;stroke:#ffffff;stroke-linejoin:miter;"/>
   </g>
   <g id="patch_115">
    <path clip-path="url(#p401f4850bf)" d="M 931.009542 509.769833 
L 933.024004 509.769833 
L 933.024004 509.769833 
L 931.009542 509.769833 
z
" style="fill:#de8f05;opacity:0.7;stroke:#ffffff;stroke-linejoin:miter;"/>
   </g>
   <g id="patch_116">
    <path clip-path="url(#p401f4850bf)" d="M 938.563773 509.769833 
L 940.578235 509.769833 
L 940.578235 509.769833 
L 938.563773 509.769833 
z
" style="fill:#de8f05;opacity:0.7;stroke:#ffffff;stroke-linejoin:miter;"/>
   </g>
   <g id="patch_117">
    <path clip-path="url(#p401f4850bf)" d="M 946.118004 509.769833 
L 948.132466 509.769833 
L 948.132466 509.769833 
L 946.118004 509.769833 
z
" style="fill:#de8f05;opacity:0.7;stroke:#ffffff;stroke-linejoin:miter;"/>
   </g>
   <g id="patch_118">
    <path clip-path="url(#p401f4850bf)" d="M 953.672235 509.769833 
L 955.686696 509.769833 
L 955.686696 509.769833 
L 953.672235 509.769833 
z
" style="fill:#de8f05;opacity:0.7;stroke:#ffffff;stroke-linejoin:miter;"/>
   </g>
   <g id="patch_119">
    <path clip-path="url(#p401f4850bf)" d="M 961.226466 509.769833 
L 963.240927 509.769833 
L 963.240927 509.769833 
L 961.226466 509.769833 
z
" style="fill:#de8f05;opacity:0.7;stroke:#ffffff;stroke-linejoin:miter;"/>
   </g>
   <g id="patch_120">
    <path clip-path="url(#p401f4850bf)" d="M 968.780697 509.769833 
L 970.795158 509.769833 
L 970.795158 509.769833 
L 968.780697 509.769833 
z
" style="fill:#de8f05;opacity:0.7;stroke:#ffffff;stroke-linejoin:miter;"/>
   </g>
   <g id="patch_121">
    <path clip-path="url(#p401f4850bf)" d="M 976.334928 509.769833 
L 978.349389 509.769833 
L 978.349389 509.769833 
L 976.334928 509.769833 
z
" style="fill:#de8f05;opacity:0.7;stroke:#ffffff;stroke-linejoin:miter;"/>
   </g>
   <g id="patch_122">
    <path clip-path="url(#p401f4850bf)" d="M 983.889159 509.769833 
L 985.90362 509.769833 
L 985.90362 509.769833 
L 983.889159 509.769833 
z
" style="fill:#de8f05;opacity:0.7;stroke:#ffffff;stroke-linejoin:miter;"/>
   </g>
   <g id="patch_123">
    <path clip-path="url(#p401f4850bf)" d="M 991.443389 509.769833 
L 993.457851 509.769833 
L 993.457851 509.769833 
L 991.443389 509.769833 
z
" style="fill:#de8f05;opacity:0.7;stroke:#ffffff;stroke-linejoin:miter;"/>
   </g>
   <g id="patch_124">
    <path clip-path="url(#p401f4850bf)" d="M 998.99762 509.769833 
L 1001.012082 509.769833 
L 1001.012082 509.769833 
L 998.99762 509.769833 
z
" style="fill:#de8f05;opacity:0.7;stroke:#ffffff;stroke-linejoin:miter;"/>
   </g>
   <g id="patch_125">
    <path clip-path="url(#p401f4850bf)" d="M 1006.551851 509.769833 
L 1008.566313 509.769833 
L 1008.566313 509.769833 
L 1006.551851 509.769833 
z
" style="fill:#de8f05;opacity:0.7;stroke:#ffffff;stroke-linejoin:miter;"/>
   </g>
   <g id="patch_126">
    <path clip-path="url(#p401f4850bf)" d="M 645.96323 509.769833 
L 647.977691 509.769833 
L 647.977691 509.769833 
L 645.96323 509.769833 
z
" style="fill:#029e73;opacity:0.7;stroke:#ffffff;stroke-linejoin:miter;"/>
   </g>
   <g id="patch_127">
    <path clip-path="url(#p401f4850bf)" d="M 653.51746 509.769833 
L 655.531922 509.769833 
L 655.531922 509.769833 
L 653.51746 509.769833 
z
" style="fill:#029e73;opacity:0.7;stroke:#ffffff;stroke-linejoin:miter;"/>
   </g>
   <g id="patch_128">
    <path clip-path="url(#p401f4850bf)" d="M 661.071691 509.769833 
L 663.086153 509.769833 
L 663.086153 509.769833 
L 661.071691 509.769833 
z
" style="fill:#029e73;opacity:0.7;stroke:#ffffff;stroke-linejoin:miter;"/>
   </g>
   <g id="patch_129">
    <path clip-path="url(#p401f4850bf)" d="M 668.625922 509.769833 
L 670.640384 509.769833 
L 670.640384 509.769833 
L 668.625922 509.769833 
z
" style="fill:#029e73;opacity:0.7;stroke:#ffffff;stroke-linejoin:miter;"/>
   </g>
   <g id="patch_130">
    <path clip-path="url(#p401f4850bf)" d="M 676.180153 509.769833 
L 678.194615 509.769833 
L 678.194615 509.769833 
L 676.180153 509.769833 
z
" style="fill:#029e73;opacity:0.7;stroke:#ffffff;stroke-linejoin:miter;"/>
   </g>
   <g id="patch_131">
    <path clip-path="url(#p401f4850bf)" d="M 683.734384 509.769833 
L 685.748846 509.769833 
L 685.748846 509.769833 
L 683.734384 509.769833 
z
" style="fill:#029e73;opacity:0.7;stroke:#ffffff;stroke-linejoin:miter;"/>
   </g>
   <g id="patch_132">
    <path clip-path="url(#p401f4850bf)" d="M 691.288615 509.769833 
L 693.303076 509.769833 
L 693.303076 509.769833 
L 691.288615 509.769833 
z
" style="fill:#029e73;opacity:0.7;stroke:#ffffff;stroke-linejoin:miter;"/>
   </g>
   <g id="patch_133">
    <path clip-path="url(#p401f4850bf)" d="M 698.842846 509.769833 
L 700.857307 509.769833 
L 700.857307 509.769833 
L 698.842846 509.769833 
z
" style="fill:#029e73;opacity:0.7;stroke:#ffffff;stroke-linejoin:miter;"/>
   </g>
   <g id="patch_134">
    <path clip-path="url(#p401f4850bf)" d="M 706.397077 509.769833 
L 708.411538 509.769833 
L 708.411538 509.769833 
L 706.397077 509.769833 
z
" style="fill:#029e73;opacity:0.7;stroke:#ffffff;stroke-linejoin:miter;"/>
   </g>
   <g id="patch_135">
    <path clip-path="url(#p401f4850bf)" d="M 713.951308 509.769833 
L 715.965769 509.769833 
L 715.965769 509.769833 
L 713.951308 509.769833 
z
" style="fill:#029e73;opacity:0.7;stroke:#ffffff;stroke-linejoin:miter;"/>
   </g>
   <g id="patch_136">
    <path clip-path="url(#p401f4850bf)" d="M 721.505539 509.769833 
L 723.52 509.769833 
L 723.52 509.769833 
L 721.505539 509.769833 
z
" style="fill:#029e73;opacity:0.7;stroke:#ffffff;stroke-linejoin:miter;"/>
   </g>
   <g id="patch_137">
    <path clip-path="url(#p401f4850bf)" d="M 729.059769 509.769833 
L 731.074231 509.769833 
L 731.074231 509.769833 
L 729.059769 509.769833 
z
" style="fill:#029e73;opacity:0.7;stroke:#ffffff;stroke-linejoin:miter;"/>
   </g>
   <g id="patch_138">
    <path clip-path="url(#p401f4850bf)" d="M 736.614 509.769833 
L 738.628462 509.769833 
L 738.628462 509.769833 
L 736.614 509.769833 
z
" style="fill:#029e73;opacity:0.7;stroke:#ffffff;stroke-linejoin:miter;"/>
   </g>
   <g id="patch_139">
    <path clip-path="url(#p401f4850bf)" d="M 744.168231 509.769833 
L 746.182693 509.769833 
L 746.182693 509.769833 
L 744.168231 509.769833 
z
" style="fill:#029e73;opacity:0.7;stroke:#ffffff;stroke-linejoin:miter;"/>
   </g>
   <g id="patch_140">
    <path clip-path="url(#p401f4850bf)" d="M 751.722462 509.769833 
L 753.736924 509.769833 
L 753.736924 509.769833 
L 751.722462 509.769833 
z
" style="fill:#029e73;opacity:0.7;stroke:#ffffff;stroke-linejoin:miter;"/>
   </g>
   <g id="patch_141">
    <path clip-path="url(#p401f4850bf)" d="M 759.276693 509.769833 
L 761.291155 509.769833 
L 761.291155 509.769833 
L 759.276693 509.769833 
z
" style="fill:#029e73;opacity:0.7;stroke:#ffffff;stroke-linejoin:miter;"/>
   </g>
   <g id="patch_142">
    <path clip-path="url(#p401f4850bf)" d="M 766.830924 509.769833 
L 768.845386 509.769833 
L 768.845386 509.769833 
L 766.830924 509.769833 
z
" style="fill:#029e73;opacity:0.7;stroke:#ffffff;stroke-linejoin:miter;"/>
   </g>
   <g id="patch_143">
    <path clip-path="url(#p401f4850bf)" d="M 774.385155 509.769833 
L 776.399616 509.769833 
L 776.399616 509.769833 
L 774.385155 509.769833 
z
" style="fill:#029e73;opacity:0.7;stroke:#ffffff;stroke-linejoin:miter;"/>
   </g>
   <g id="patch_144">
    <path clip-path="url(#p401f4850bf)" d="M 781.939386 509.769833 
L 783.953847 509.769833 
L 783.953847 509.769833 
L 781.939386 509.769833 
z
" style="fill:#029e73;opacity:0.7;stroke:#ffffff;stroke-linejoin:miter;"/>
   </g>
   <g id="patch_145">
    <path clip-path="url(#p401f4850bf)" d="M 789.493617 509.769833 
L 791.508078 509.769833 
L 791.508078 459.8888 
L 789.493617 459.8888 
z
" style="fill:#029e73;opacity:0.7;stroke:#ffffff;stroke-linejoin:miter;"/>
   </g>
   <g id="patch_146">
    <path clip-path="url(#p401f4850bf)" d="M 797.047848 509.769833 
L 799.062309 509.769833 
L 799.062309 509.769833 
L 797.047848 509.769833 
z
" style="fill:#029e73;opacity:0.7;stroke:#ffffff;stroke-linejoin:miter;"/>
   </g>
   <g id="patch_147">
    <path clip-path="url(#p401f4850bf)" d="M 804.602078 509.769833 
L 806.61654 509.769833 
L 806.61654 509.769833 
L 804.602078 509.769833 
z
" style="fill:#029e73;opacity:0.7;stroke:#ffffff;stroke-linejoin:miter;"/>
   </g>
   <g id="patch_148">
    <path clip-path="url(#p401f4850bf)" d="M 812.156309 509.769833 
L 814.170771 509.769833 
L 814.170771 509.769833 
L 812.156309 509.769833 
z
" style="fill:#029e73;opacity:0.7;stroke:#ffffff;stroke-linejoin:miter;"/>
   </g>
   <g id="patch_149">
    <path clip-path="url(#p401f4850bf)" d="M 819.71054 509.769833 
L 821.725002 509.769833 
L 821.725002 509.769833 
L 819.71054 509.769833 
z
" style="fill:#029e73;opacity:0.7;stroke:#ffffff;stroke-linejoin:miter;"/>
   </g>
   <g id="patch_150">
    <path clip-path="url(#p401f4850bf)" d="M 827.264771 509.769833 
L 829.279233 509.769833 
L 829.279233 509.769833 
L 827.264771 509.769833 
z
" style="fill:#029e73;opacity:0.7;stroke:#ffffff;stroke-linejoin:miter;"/>
   </g>
   <g id="patch_151">
    <path clip-path="url(#p401f4850bf)" d="M 834.819002 509.769833 
L 836.833464 509.769833 
L 836.833464 509.769833 
L 834.819002 509.769833 
z
" style="fill:#029e73;opacity:0.7;stroke:#ffffff;stroke-linejoin:miter;"/>
   </g>
   <g id="patch_152">
    <path clip-path="url(#p401f4850bf)" d="M 842.373233 509.769833 
L 844.387695 509.769833 
L 844.387695 509.769833 
L 842.373233 509.769833 
z
" style="fill:#029e73;opacity:0.7;stroke:#ffffff;stroke-linejoin:miter;"/>
   </g>
   <g id="patch_153">
    <path clip-path="url(#p401f4850bf)" d="M 849.927464 509.769833 
L 851.941925 509.769833 
L 851.941925 509.769833 
L 849.927464 509.769833 
z
" style="fill:#029e73;opacity:0.7;stroke:#ffffff;stroke-linejoin:miter;"/>
   </g>
   <g id="patch_154">
    <path clip-path="url(#p401f4850bf)" d="M 857.481695 509.769833 
L 859.496156 509.769833 
L 859.496156 509.769833 
L 857.481695 509.769833 
z
" style="fill:#029e73;opacity:0.7;stroke:#ffffff;stroke-linejoin:miter;"/>
   </g>
   <g id="patch_155">
    <path clip-path="url(#p401f4850bf)" d="M 865.035926 509.769833 
L 867.050387 509.769833 
L 867.050387 509.769833 
L 865.035926 509.769833 
z
" style="fill:#029e73;opacity:0.7;stroke:#ffffff;stroke-linejoin:miter;"/>
   </g>
   <g id="patch_156">
    <path clip-path="url(#p401f4850bf)" d="M 872.590157 509.769833 
L 874.604618 509.769833 
L 874.604618 509.769833 
L 872.590157 509.769833 
z
" style="fill:#029e73;opacity:0.7;stroke:#ffffff;stroke-linejoin:miter;"/>
   </g>
   <g id="patch_157">
    <path clip-path="url(#p401f4850bf)" d="M 880.144387 509.769833 
L 882.158849 509.769833 
L 882.158849 509.769833 
L 880.144387 509.769833 
z
" style="fill:#029e73;opacity:0.7;stroke:#ffffff;stroke-linejoin:miter;"/>
   </g>
   <g id="patch_158">
    <path clip-path="url(#p401f4850bf)" d="M 887.698618 509.769833 
L 889.71308 509.769833 
L 889.71308 509.769833 
L 887.698618 509.769833 
z
" style="fill:#029e73;opacity:0.7;stroke:#ffffff;stroke-linejoin:miter;"/>
   </g>
   <g id="patch_159">
    <path clip-path="url(#p401f4850bf)" d="M 895.252849 509.769833 
L 897.267311 509.769833 
L 897.267311 509.769833 
L 895.252849 509.769833 
z
" style="fill:#029e73;opacity:0.7;stroke:#ffffff;stroke-linejoin:miter;"/>
   </g>
   <g id="patch_160">
    <path clip-path="url(#p401f4850bf)" d="M 902.80708 509.769833 
L 904.821542 509.769833 
L 904.821542 509.769833 
L 902.80708 509.769833 
z
" style="fill:#029e73;opacity:0.7;stroke:#ffffff;stroke-linejoin:miter;"/>
   </g>
   <g id="patch_161">
    <path clip-path="url(#p401f4850bf)" d="M 910.361311 509.769833 
L 912.375773 509.769833 
L 912.375773 509.769833 
L 910.361311 509.769833 
z
" style="fill:#029e73;opacity:0.7;stroke:#ffffff;stroke-linejoin:miter;"/>
   </g>
   <g id="patch_162">
    <path clip-path="url(#p401f4850bf)" d="M 917.915542 509.769833 
L 919.930004 509.769833 
L 919.930004 509.769833 
L 917.915542 509.769833 
z
" style="fill:#029e73;opacity:0.7;stroke:#ffffff;stroke-linejoin:miter;"/>
   </g>
   <g id="patch_163">
    <path clip-path="url(#p401f4850bf)" d="M 925.469773 509.769833 
L 927.484234 509.769833 
L 927.484234 509.769833 
L 925.469773 509.769833 
z
" style="fill:#029e73;opacity:0.7;stroke:#ffffff;stroke-linejoin:miter;"/>
   </g>
   <g id="patch_164">
    <path clip-path="url(#p401f4850bf)" d="M 933.024004 509.769833 
L 935.038465 509.769833 
L 935.038465 509.769833 
L 933.024004 509.769833 
z
" style="fill:#029e73;opacity:0.7;stroke:#ffffff;stroke-linejoin:miter;"/>
   </g>
   <g id="patch_165">
    <path clip-path="url(#p401f4850bf)" d="M 940.578235 509.769833 
L 942.592696 509.769833 
L 942.592696 509.769833 
L 940.578235 509.769833 
z
" style="fill:#029e73;opacity:0.7;stroke:#ffffff;stroke-linejoin:miter;"/>
   </g>
   <g id="patch_166">
    <path clip-path="url(#p401f4850bf)" d="M 948.132466 509.769833 
L 950.146927 509.769833 
L 950.146927 509.769833 
L 948.132466 509.769833 
z
" style="fill:#029e73;opacity:0.7;stroke:#ffffff;stroke-linejoin:miter;"/>
   </g>
   <g id="patch_167">
    <path clip-path="url(#p401f4850bf)" d="M 955.686696 509.769833 
L 957.701158 509.769833 
L 957.701158 509.769833 
L 955.686696 509.769833 
z
" style="fill:#029e73;opacity:0.7;stroke:#ffffff;stroke-linejoin:miter;"/>
   </g>
   <g id="patch_168">
    <path clip-path="url(#p401f4850bf)" d="M 963.240927 509.769833 
L 965.255389 509.769833 
L 965.255389 509.769833 
L 963.240927 509.769833 
z
" style="fill:#029e73;opacity:0.7;stroke:#ffffff;stroke-linejoin:miter;"/>
   </g>
   <g id="patch_169">
    <path clip-path="url(#p401f4850bf)" d="M 970.795158 509.769833 
L 972.80962 509.769833 
L 972.80962 509.769833 
L 970.795158 509.769833 
z
" style="fill:#029e73;opacity:0.7;stroke:#ffffff;stroke-linejoin:miter;"/>
   </g>
   <g id="patch_170">
    <path clip-path="url(#p401f4850bf)" d="M 978.349389 509.769833 
L 980.363851 509.769833 
L 980.363851 509.769833 
L 978.349389 509.769833 
z
" style="fill:#029e73;opacity:0.7;stroke:#ffffff;stroke-linejoin:miter;"/>
   </g>
   <g id="patch_171">
    <path clip-path="url(#p401f4850bf)" d="M 985.90362 509.769833 
L 987.918082 509.769833 
L 987.918082 509.769833 
L 985.90362 509.769833 
z
" style="fill:#029e73;opacity:0.7;stroke:#ffffff;stroke-linejoin:miter;"/>
   </g>
   <g id="patch_172">
    <path clip-path="url(#p401f4850bf)" d="M 993.457851 509.769833 
L 995.472313 509.769833 
L 995.472313 509.769833 
L 993.457851 509.769833 
z
" style="fill:#029e73;opacity:0.7;stroke:#ffffff;stroke-linejoin:miter;"/>
   </g>
   <g id="patch_173">
    <path clip-path="url(#p401f4850bf)" d="M 1001.012082 509.769833 
L 1003.026543 509.769833 
L 1003.026543 509.769833 
L 1001.012082 509.769833 
z
" style="fill:#029e73;opacity:0.7;stroke:#ffffff;stroke-linejoin:miter;"/>
   </g>
   <g id="patch_174">
    <path clip-path="url(#p401f4850bf)" d="M 1008.566313 509.769833 
L 1010.580774 509.769833 
L 1010.580774 509.769833 
L 1008.566313 509.769833 
z
" style="fill:#029e73;opacity:0.7;stroke:#ffffff;stroke-linejoin:miter;"/>
   </g>
   <g id="patch_175">
    <path d="M 623.501983 509.769833 
L 623.501983 457.394748 
" style="fill:none;stroke:#cccccc;stroke-linecap:square;stroke-linejoin:miter;stroke-width:0.6;"/>
   </g>
   <g id="patch_176">
    <path d="M 1029.013098 509.769833 
L 1029.013098 457.394748 
" style="fill:none;stroke:#cccccc;stroke-linecap:square;stroke-linejoin:miter;stroke-width:0.6;"/>
   </g>
   <g id="patch_177">
    <path d="M 623.501983 509.769833 
L 1029.013098 509.769833 
" style="fill:none;stroke:#cccccc;stroke-linecap:square;stroke-linejoin:miter;stroke-width:0.6;"/>
   </g>
   <g id="patch_178">
    <path d="M 623.501983 457.394748 
L 1029.013098 457.394748 
" style="fill:none;stroke:#cccccc;stroke-linecap:square;stroke-linejoin:miter;stroke-width:0.6;"/>
   </g>
   <g id="text_35">
    <!-- f -->
    <g style="fill:#262626;" transform="translate(542.39976 459.077232)scale(0.16 -0.16)">
     <defs>
      <path d="M 2841 4863 
L 2841 4128 
L 2222 4128 
Q 1984 4128 1890 4042 
Q 1797 3956 1797 3744 
L 1797 3500 
L 2753 3500 
L 2753 2700 
L 1797 2700 
L 1797 0 
L 678 0 
L 678 2700 
L 122 2700 
L 122 3500 
L 678 3500 
L 678 3744 
Q 678 4316 997 4589 
Q 1316 4863 1984 4863 
L 2841 4863 
z
" id="DejaVuSans-Bold-66" transform="scale(0.015625)"/>
     </defs>
     <use xlink:href="#DejaVuSans-Bold-66"/>
    </g>
   </g>
   <g id="legend_1">
    <g id="patch_179">
     <path d="M 662.001983 482.269833 
L 961.184795 482.269833 
Q 972.184795 482.269833 972.184795 471.269833 
L 972.184795 273.08077 
Q 972.184795 262.08077 961.184795 262.08077 
L 662.001983 262.08077 
Q 651.001983 262.08077 651.001983 273.08077 
L 651.001983 471.269833 
Q 651.001983 482.269833 662.001983 482.269833 
z
" style="fill:#ffffff;opacity:0.5;stroke:#cccccc;stroke-linejoin:miter;"/>
    </g>
    <g id="patch_180">
     <path d="M 670.251983 323.122176 
L 697.751983 323.122176 
L 697.751983 284.622176 
L 670.251983 284.622176 
z
" style="fill:#0173b2;opacity:0.7;stroke:#ffffff;stroke-linejoin:miter;"/>
    </g>
    <g id="text_36">
     <!-- Full -->
     <g style="fill:#262626;" transform="translate(725.251983 323.122176)scale(0.55 -0.55)">
      <defs>
       <path d="M 628 4666 
L 3309 4666 
L 3309 4134 
L 1259 4134 
L 1259 2759 
L 3109 2759 
L 3109 2228 
L 1259 2228 
L 1259 0 
L 628 0 
L 628 4666 
z
" id="DejaVuSans-46" transform="scale(0.015625)"/>
       <path d="M 544 1381 
L 544 3500 
L 1119 3500 
L 1119 1403 
Q 1119 906 1312 657 
Q 1506 409 1894 409 
Q 2359 409 2629 706 
Q 2900 1003 2900 1516 
L 2900 3500 
L 3475 3500 
L 3475 0 
L 2900 0 
L 2900 538 
Q 2691 219 2414 64 
Q 2138 -91 1772 -91 
Q 1169 -91 856 284 
Q 544 659 544 1381 
z
M 1991 3584 
L 1991 3584 
z
" id="DejaVuSans-75" transform="scale(0.015625)"/>
       <path d="M 603 4863 
L 1178 4863 
L 1178 0 
L 603 0 
L 603 4863 
z
" id="DejaVuSans-6c" transform="scale(0.015625)"/>
      </defs>
      <use xlink:href="#DejaVuSans-46"/>
      <use x="52.019531" xlink:href="#DejaVuSans-75"/>
      <use x="115.398438" xlink:href="#DejaVuSans-6c"/>
      <use x="143.181641" xlink:href="#DejaVuSans-6c"/>
     </g>
    </g>
    <g id="patch_181">
     <path d="M 670.251983 387.351864 
L 697.751983 387.351864 
L 697.751983 348.851864 
L 670.251983 348.851864 
z
" style="fill:#de8f05;opacity:0.7;stroke:#ffffff;stroke-linejoin:miter;"/>
    </g>
    <g id="text_37">
     <!-- Pre -->
     <g style="fill:#262626;" transform="translate(725.251983 387.351864)scale(0.55 -0.55)">
      <defs>
       <path d="M 1259 4147 
L 1259 2394 
L 2053 2394 
Q 2494 2394 2734 2622 
Q 2975 2850 2975 3272 
Q 2975 3691 2734 3919 
Q 2494 4147 2053 4147 
L 1259 4147 
z
M 628 4666 
L 2053 4666 
Q 2838 4666 3239 4311 
Q 3641 3956 3641 3272 
Q 3641 2581 3239 2228 
Q 2838 1875 2053 1875 
L 1259 1875 
L 1259 0 
L 628 0 
L 628 4666 
z
" id="DejaVuSans-50" transform="scale(0.015625)"/>
       <path d="M 2631 2963 
Q 2534 3019 2420 3045 
Q 2306 3072 2169 3072 
Q 1681 3072 1420 2755 
Q 1159 2438 1159 1844 
L 1159 0 
L 581 0 
L 581 3500 
L 1159 3500 
L 1159 2956 
Q 1341 3275 1631 3429 
Q 1922 3584 2338 3584 
Q 2397 3584 2469 3576 
Q 2541 3569 2628 3553 
L 2631 2963 
z
" id="DejaVuSans-72" transform="scale(0.015625)"/>
       <path d="M 3597 1894 
L 3597 1613 
L 953 1613 
Q 991 1019 1311 708 
Q 1631 397 2203 397 
Q 2534 397 2845 478 
Q 3156 559 3463 722 
L 3463 178 
Q 3153 47 2828 -22 
Q 2503 -91 2169 -91 
Q 1331 -91 842 396 
Q 353 884 353 1716 
Q 353 2575 817 3079 
Q 1281 3584 2069 3584 
Q 2775 3584 3186 3129 
Q 3597 2675 3597 1894 
z
M 3022 2063 
Q 3016 2534 2758 2815 
Q 2500 3097 2075 3097 
Q 1594 3097 1305 2825 
Q 1016 2553 972 2059 
L 3022 2063 
z
" id="DejaVuSans-65" transform="scale(0.015625)"/>
      </defs>
      <use xlink:href="#DejaVuSans-50"/>
      <use x="58.552734" xlink:href="#DejaVuSans-72"/>
      <use x="97.416016" xlink:href="#DejaVuSans-65"/>
     </g>
    </g>
    <g id="patch_182">
     <path d="M 670.251983 451.581551 
L 697.751983 451.581551 
L 697.751983 413.081551 
L 670.251983 413.081551 
z
" style="fill:#029e73;opacity:0.7;stroke:#ffffff;stroke-linejoin:miter;"/>
    </g>
    <g id="text_38">
     <!-- Random -->
     <g style="fill:#262626;" transform="translate(725.251983 451.581551)scale(0.55 -0.55)">
      <defs>
       <path d="M 2841 2188 
Q 3044 2119 3236 1894 
Q 3428 1669 3622 1275 
L 4263 0 
L 3584 0 
L 2988 1197 
Q 2756 1666 2539 1819 
Q 2322 1972 1947 1972 
L 1259 1972 
L 1259 0 
L 628 0 
L 628 4666 
L 2053 4666 
Q 2853 4666 3247 4331 
Q 3641 3997 3641 3322 
Q 3641 2881 3436 2590 
Q 3231 2300 2841 2188 
z
M 1259 4147 
L 1259 2491 
L 2053 2491 
Q 2509 2491 2742 2702 
Q 2975 2913 2975 3322 
Q 2975 3731 2742 3939 
Q 2509 4147 2053 4147 
L 1259 4147 
z
" id="DejaVuSans-52" transform="scale(0.015625)"/>
       <path d="M 2194 1759 
Q 1497 1759 1228 1600 
Q 959 1441 959 1056 
Q 959 750 1161 570 
Q 1363 391 1709 391 
Q 2188 391 2477 730 
Q 2766 1069 2766 1631 
L 2766 1759 
L 2194 1759 
z
M 3341 1997 
L 3341 0 
L 2766 0 
L 2766 531 
Q 2569 213 2275 61 
Q 1981 -91 1556 -91 
Q 1019 -91 701 211 
Q 384 513 384 1019 
Q 384 1609 779 1909 
Q 1175 2209 1959 2209 
L 2766 2209 
L 2766 2266 
Q 2766 2663 2505 2880 
Q 2244 3097 1772 3097 
Q 1472 3097 1187 3025 
Q 903 2953 641 2809 
L 641 3341 
Q 956 3463 1253 3523 
Q 1550 3584 1831 3584 
Q 2591 3584 2966 3190 
Q 3341 2797 3341 1997 
z
" id="DejaVuSans-61" transform="scale(0.015625)"/>
       <path d="M 3513 2113 
L 3513 0 
L 2938 0 
L 2938 2094 
Q 2938 2591 2744 2837 
Q 2550 3084 2163 3084 
Q 1697 3084 1428 2787 
Q 1159 2491 1159 1978 
L 1159 0 
L 581 0 
L 581 3500 
L 1159 3500 
L 1159 2956 
Q 1366 3272 1645 3428 
Q 1925 3584 2291 3584 
Q 2894 3584 3203 3211 
Q 3513 2838 3513 2113 
z
" id="DejaVuSans-6e" transform="scale(0.015625)"/>
       <path d="M 2906 2969 
L 2906 4863 
L 3481 4863 
L 3481 0 
L 2906 0 
L 2906 525 
Q 2725 213 2448 61 
Q 2172 -91 1784 -91 
Q 1150 -91 751 415 
Q 353 922 353 1747 
Q 353 2572 751 3078 
Q 1150 3584 1784 3584 
Q 2172 3584 2448 3432 
Q 2725 3281 2906 2969 
z
M 947 1747 
Q 947 1113 1208 752 
Q 1469 391 1925 391 
Q 2381 391 2643 752 
Q 2906 1113 2906 1747 
Q 2906 2381 2643 2742 
Q 2381 3103 1925 3103 
Q 1469 3103 1208 2742 
Q 947 2381 947 1747 
z
" id="DejaVuSans-64" transform="scale(0.015625)"/>
       <path d="M 1959 3097 
Q 1497 3097 1228 2736 
Q 959 2375 959 1747 
Q 959 1119 1226 758 
Q 1494 397 1959 397 
Q 2419 397 2687 759 
Q 2956 1122 2956 1747 
Q 2956 2369 2687 2733 
Q 2419 3097 1959 3097 
z
M 1959 3584 
Q 2709 3584 3137 3096 
Q 3566 2609 3566 1747 
Q 3566 888 3137 398 
Q 2709 -91 1959 -91 
Q 1206 -91 779 398 
Q 353 888 353 1747 
Q 353 2609 779 3096 
Q 1206 3584 1959 3584 
z
" id="DejaVuSans-6f" transform="scale(0.015625)"/>
       <path d="M 3328 2828 
Q 3544 3216 3844 3400 
Q 4144 3584 4550 3584 
Q 5097 3584 5394 3201 
Q 5691 2819 5691 2113 
L 5691 0 
L 5113 0 
L 5113 2094 
Q 5113 2597 4934 2840 
Q 4756 3084 4391 3084 
Q 3944 3084 3684 2787 
Q 3425 2491 3425 1978 
L 3425 0 
L 2847 0 
L 2847 2094 
Q 2847 2600 2669 2842 
Q 2491 3084 2119 3084 
Q 1678 3084 1418 2786 
Q 1159 2488 1159 1978 
L 1159 0 
L 581 0 
L 581 3500 
L 1159 3500 
L 1159 2956 
Q 1356 3278 1631 3431 
Q 1906 3584 2284 3584 
Q 2666 3584 2933 3390 
Q 3200 3197 3328 2828 
z
" id="DejaVuSans-6d" transform="scale(0.015625)"/>
      </defs>
      <use xlink:href="#DejaVuSans-52"/>
      <use x="67.232422" xlink:href="#DejaVuSans-61"/>
      <use x="128.511719" xlink:href="#DejaVuSans-6e"/>
      <use x="191.890625" xlink:href="#DejaVuSans-64"/>
      <use x="255.367188" xlink:href="#DejaVuSans-6f"/>
      <use x="316.548828" xlink:href="#DejaVuSans-6d"/>
     </g>
    </g>
   </g>
  </g>
 </g>
 <defs>
  <clipPath id="pe2e148bc68">
   <rect height="52.375084" width="405.511115" x="81.102223" y="20.895703"/>
  </clipPath>
  <clipPath id="pbc1ea47e21">
   <rect height="52.375084" width="405.511115" x="623.501983" y="20.895703"/>
  </clipPath>
  <clipPath id="p63fbc7c811">
   <rect height="52.375084" width="405.511115" x="81.102223" y="160.396658"/>
  </clipPath>
  <clipPath id="pce666b5e02">
   <rect height="52.375084" width="405.511115" x="623.501983" y="160.396658"/>
  </clipPath>
  <clipPath id="p243d5e31af">
   <rect height="52.375084" width="405.511115" x="81.102223" y="457.394748"/>
  </clipPath>
  <clipPath id="p401f4850bf">
   <rect height="52.375084" width="405.511115" x="623.501983" y="457.394748"/>
  </clipPath>
 </defs>
</svg>
